:SAMPLES-PER-SECOND 24
:FULLY-SPECIFIED
:DEGREES
375
root  -2.47406 36.0499 -15.112 -173.422 0.382431 -178.236
RightUpLeg  -5.30681 -11.2982 -3.49019
RightLeg  67.442 -4.088 -11.4306
RightFoot  16.5602 -1.30832 5.72705
RightToes  -2.09809e-008 3.77894e-005 6.81332e-007
Spine  -0.580403 8.62098 3.26833
Spine1  -2.58242 12.0149 -21.9808
HEad  -22.0495 -10.2383 4.57626
LeftShoulder1  7.40112 -13.3748 -37.7505
LeftArm  -4.30742 27.0364 -22.7892
LeftForeArm  154.955 -72.0201 -148.069
LeftHand  -0.324899 -0.809062 6.20418
RightShoulder  3.62152 6.59527 29.9451
RightArm  16.0894 12.7341 36.3321
RightForeArm  76.6935 79.4114 63.4039
RightHand  -0.469958 9.71208 -4.00314
LeftUpLeg  -42.8825 9.20057 -5.76676
LeftLeg  41.2656 9.31378 9.03261
LeftFoot  -6.51905 -0.22091 6.17248
LeftToes  1.24773e-006 1.46318e-008 1.32523e-009
376
root  -2.5242 36.0761 -16.7762 -175.974 -10.9521 -177.817
RightUpLeg  -18.1307 -14.5234 -0.82667
RightLeg  85.6325 0.25768 -4.6771
RightFoot  11.37 -1.09279 5.84215
RightToes  -2.09809e-008 3.77894e-005 6.81332e-007
Spine  0.704305 5.97594 -1.37127
Spine1  0.711488 9.32569 -17.1396
HEad  -20.9826 -12.7045 6.6669
LeftShoulder1  8.17618 -13.9715 -40.5557
LeftArm  -3.43188 12.3746 -20.7138
LeftForeArm  143.453 -76.314 -135.446
LeftHand  -0.363105 -0.889771 6.84185
RightShoulder  3.83361 6.68337 31.7438
RightArm  12.868 2.52519 30.2972
RightForeArm  88.3362 80.1545 72.6126
RightHand  -0.407788 9.61019 -3.54688
LeftUpLeg  -38.9456 0.721195 -4.97339
LeftLeg  43.8579 7.60474 8.15863
LeftFoot  -8.62902 -0.0809831 5.63353
LeftToes  1.24773e-006 1.46318e-008 1.32523e-009
377
root  -2.56416 36.6864 -18.4261 -178.811 -20.1485 -174.976
RightUpLeg  -32.8417 -16.9917 1.20732
RightLeg  98.7673 1.51779 -6.07991
RightFoot  8.9549 -0.90381 5.3822
RightToes  -2.09809e-008 3.77894e-005 6.81332e-007
Spine  0.475791 3.78939 -4.28932
Spine1  3.5492 6.31628 -10.8906
HEad  -19.1323 -13.0272 8.11503
LeftShoulder1  8.3057 -14.1015 -40.9222
LeftArm  -1.25717 0.276056 -22.8731
LeftForeArm  135.152 -78.1474 -126.008
LeftHand  -0.384367 -1.46675 6.6732
RightShoulder  3.82415 6.53071 32.2231
RightArm  10.9232 -9.30494 26.7974
RightForeArm  120.444 80.2425 105.238
RightHand  -0.322469 9.76199 -2.86797
LeftUpLeg  -33.7938 -4.51128 -2.28535
LeftLeg  42.8736 5.70309 6.0539
LeftFoot  -9.71345 -0.0294261 6.20722
LeftToes  1.24773e-006 1.46318e-008 1.32523e-009
378
root  -2.56314 37.9605 -19.9785 176.059 -26.1983 -169.394
RightUpLeg  -44.2146 -16.1242 2.28368
RightLeg  104.573 1.70078 -4.60044
RightFoot  3.54385 -0.386984 3.01942
RightToes  -2.09809e-008 3.77894e-005 6.81332e-007
Spine  -0.269484 1.3042 -6.3186
Spine1  6.68007 2.22106 -2.76344
HEad  -16.0053 -9.99674 7.80249
LeftShoulder1  7.71085 -13.6455 -38.8165
LeftArm  0.185298 -6.0042 -26.9271
LeftForeArm  140.977 -77.3051 -131.202
LeftHand  -0.371204 -1.73474 6.22588
RightShoulder  3.78266 6.46026 32.0774
RightArm  11.4854 -16.7324 25.8391
RightForeArm  139.972 78.5658 125.122
RightHand  -0.316892 9.87377 -2.80759
LeftUpLeg  -26.0902 -6.78488 3.00658
LeftLeg  37.4992 3.72098 3.4617
LeftFoot  -9.37161 -0.050881 5.96615
LeftToes  1.24773e-006 1.46318e-008 1.32523e-009
379
root  -2.53543 39.5882 -21.4379 168.436 -30.2626 -161.829
RightUpLeg  -50.1022 -14.7808 2.29607
RightLeg  104.613 0.345808 0.0183994
RightFoot  -3.51315 -0.376257 5.14495
RightToes  -2.09809e-008 3.77894e-005 6.81332e-007
Spine  1.42852 -1.44705 -7.39998
Spine1  8.157 -2.78525 5.75595
HEad  -11.4704 -5.30818 6.43333
LeftShoulder1  6.95092 -12.9286 -36.2511
LeftArm  1.35651 -7.88302 -29.53
LeftForeArm  152.037 -74.9923 -141.098
LeftHand  -0.321574 -1.81895 5.35855
RightShoulder  3.87474 6.58882 32.5068
RightArm  12.8482 -20.8053 25.5738
RightForeArm  147.176 77.8479 130.464
RightHand  -0.381209 9.63906 -3.33709
LeftUpLeg  -18.3281 -9.46338 9.65879
LeftLeg  32.5084 3.38618 2.67775
LeftFoot  -4.61991 -0.192826 3.75613
LeftToes  1.24773e-006 1.46318e-008 1.32523e-009
380
root  -2.49633 41.0657 -22.7466 159.977 -33.6945 -153.229
RightUpLeg  -53.163 -15.2768 2.19133
RightLeg  102.896 -0.327051 2.51338
RightFoot  -7.31167 -0.324706 7.68988
RightToes  -2.09809e-008 3.77894e-005 6.81332e-007
Spine  4.93309 -3.80895 -6.75577
Spine1  7.32936 -7.1576 13.2424
HEad  -6.28073 -1.84495 4.95072
LeftShoulder1  6.22814 -12.1786 -33.7102
LeftArm  4.24628 -8.80478 -31.3802
LeftForeArm  158.564 -73.0534 -146.693
LeftHand  -0.267188 -2.15328 4.30771
RightShoulder  3.96447 6.701 32.9637
RightArm  12.9385 -26.0625 25.0937
RightForeArm  150.708 77.0683 134.379
RightHand  -0.381929 9.50205 -3.36717
LeftUpLeg  -14.1508 -8.86799 15.3992
LeftLeg  30.4693 7.55968 5.10263
LeftFoot  3.13801 -0.348078 2.59984
LeftToes  1.24773e-006 1.46318e-008 1.32523e-009
381
root  -2.37756 42.0477 -24.0629 152.473 -37.377 -144.337
RightUpLeg  -56.0688 -17.6551 1.87067
RightLeg  102.117 -0.0224861 1.46341
RightFoot  -9.92475 -0.176619 8.93394
RightToes  -2.09809e-008 3.77894e-005 6.81332e-007
Spine  7.68538 -5.71447 -6.35087
Spine1  4.58429 -10.5397 20.0006
HEad  -1.69319 -0.642186 4.16995
LeftShoulder1  5.51448 -11.3972 -31.0065
LeftArm  9.10963 -10.7058 -34.393
LeftForeArm  159.629 -72.5697 -147.803
LeftHand  -0.196326 -2.58868 3.06979
RightShoulder  4.02716 6.79241 33.2303
RightArm  11.9181 -33.5742 22.9863
RightForeArm  154.176 74.9407 141.582
RightHand  -0.311769 9.19837 -2.86813
LeftUpLeg  -13.8594 0.759526 19.2321
LeftLeg  26.5674 12.3754 6.93116
LeftFoot  5.96853 0.0635927 -0.724176
LeftToes  1.24773e-006 1.46318e-008 1.32523e-009
382
root  -2.2091 42.4517 -25.5041 145.356 -41.8294 -134.742
RightUpLeg  -58.6943 -21.9482 0.371635
RightLeg  102.29 0.198048 0.582348
RightFoot  -12.5598 0.0222658 10.0556
RightToes  -2.09809e-008 3.77894e-005 6.81332e-007
Spine  8.71642 -7.06756 -8.07928
Spine1  1.98854 -13.3178 27.2599
HEad  0.555224 -1.63825 4.47343
LeftShoulder1  4.78229 -10.494 -28.114
LeftArm  14.9548 -16.0297 -39.6278
LeftForeArm  156.16 -74.137 -143.969
LeftHand  -0.103035 -3.11686 1.64399
RightShoulder  3.83043 6.61636 31.9657
RightArm  9.10103 -41.6843 21.4806
RightForeArm  158.376 72.2338 148.174
RightHand  -0.315357 8.80638 -2.96135
LeftUpLeg  -16.2907 19.0629 18.4944
LeftLeg  18.8734 8.56922 3.71726
LeftFoot  5.27279 1.09726 -7.72525
LeftToes  1.24773e-006 1.46318e-008 1.32523e-009
383
root  -2.1009 42.1976 -26.8723 136.321 -45.0992 -123.927
RightUpLeg  -58.465 -26.6115 -2.89768
RightLeg  102.357 -0.155133 1.95902
RightFoot  -14.8111 0.207661 10.1579
RightToes  -2.09809e-008 3.77894e-005 6.81332e-007
Spine  9.84134 -7.83958 -8.38482
Spine1  0.504987 -14.9538 32.1525
HEad  0.181167 -3.94689 5.65377
LeftShoulder1  3.92914 -9.44111 -24.1482
LeftArm  20.7253 -25.032 -46.383
LeftForeArm  147.464 -76.8199 -134.564
LeftHand  -0.0930662 -3.61018 1.456
RightShoulder  3.36603 6.11042 29.0801
RightArm  3.9799 -48.6765 23.0309
RightForeArm  160.984 70.4887 151.456
RightHand  -0.390269 8.66071 -3.60164
LeftUpLeg  -18.8483 31.8008 15.2305
LeftLeg  11.8698 7.40561 1.13958
LeftFoot  5.95541 0.764741 -5.26505
LeftToes  1.24773e-006 1.46318e-008 1.32523e-009
384
root  -1.98331 41.2701 -28.1028 126.857 -44.5749 -114.397
RightUpLeg  -56.1732 -28.462 -6.80836
RightLeg  101.788 -0.499837 3.43279
RightFoot  -16.658 0.438055 11.8295
RightToes  -2.09809e-008 3.77894e-005 6.81332e-007
Spine  12.2398 -7.39584 -5.91458
Spine1  -0.886053 -14.4884 34.4225
HEad  -2.00154 -6.71471 7.01505
LeftShoulder1  3.16454 -8.50498 -19.9029
LeftArm  25.5393 -35.054 -52.6657
LeftForeArm  132.464 -79.1295 -119.54
LeftHand  -0.179206 -4.01885 2.48309
RightShoulder  2.88647 5.50754 26.0029
RightArm  -0.299854 -53.148 24.2803
RightForeArm  161.655 69.0699 153.529
RightHand  -0.472524 8.58524 -4.29838
LeftUpLeg  -17.3543 25.5504 19.4889
LeftLeg  8.95111 18.9111 1.63961
LeftFoot  1.54039 -0.983608 8.94833
LeftToes  1.24773e-006 1.46318e-008 1.32523e-009
